<svg width="78" height="21" viewBox="0 0 78 21" fill="none" xmlns="http://www.w3.org/2000/svg">
<path d="M11.189 16H8.84526V11.125H4.27495V16H1.9312V4.625H4.27495V9.23438H8.84526V4.625H11.189V16ZM12.7437 11.6953C12.7437 10.8568 12.9052 10.1094 13.2281 9.45312C13.551 8.79688 14.0145 8.28906 14.6187 7.92969C15.2281 7.57031 15.9338 7.39062 16.7359 7.39062C17.8765 7.39062 18.8062 7.73958 19.5249 8.4375C20.2489 9.13542 20.6526 10.0833 20.7359 11.2812L20.7515 11.8594C20.7515 13.1562 20.3895 14.1979 19.6656 14.9844C18.9416 15.7656 17.9703 16.1562 16.7515 16.1562C15.5328 16.1562 14.5588 15.7656 13.8296 14.9844C13.1057 14.2031 12.7437 13.1406 12.7437 11.7969V11.6953ZM15.0015 11.8594C15.0015 12.6615 15.1526 13.276 15.4546 13.7031C15.7567 14.125 16.189 14.3359 16.7515 14.3359C17.2984 14.3359 17.7255 14.1276 18.0328 13.7109C18.3401 13.2891 18.4937 12.6172 18.4937 11.6953C18.4937 10.9089 18.3401 10.2995 18.0328 9.86719C17.7255 9.4349 17.2932 9.21875 16.7359 9.21875C16.1838 9.21875 15.7567 9.4349 15.4546 9.86719C15.1526 10.2943 15.0015 10.9583 15.0015 11.8594ZM24.2593 7.54688L24.3296 8.49219C24.9286 7.75781 25.7385 7.39062 26.7593 7.39062C27.8479 7.39062 28.5953 7.82031 29.0015 8.67969C29.5953 7.82031 30.4416 7.39062 31.5406 7.39062C32.4572 7.39062 33.1395 7.65885 33.5874 8.19531C34.0354 8.72656 34.2593 9.52865 34.2593 10.6016V16H31.9937V10.6094C31.9937 10.1302 31.8999 9.78125 31.7124 9.5625C31.5249 9.33854 31.1942 9.22656 30.7203 9.22656C30.0432 9.22656 29.5744 9.54948 29.314 10.1953L29.3218 16H27.064V10.6172C27.064 10.1276 26.9677 9.77344 26.7749 9.55469C26.5822 9.33594 26.2541 9.22656 25.7906 9.22656C25.1499 9.22656 24.6864 9.49219 24.3999 10.0234V16H22.1421V7.54688H24.2593ZM39.8921 16.1562C38.6526 16.1562 37.6421 15.776 36.8609 15.0156C36.0848 14.2552 35.6968 13.2422 35.6968 11.9766V11.7578C35.6968 10.9089 35.8609 10.151 36.189 9.48438C36.5171 8.8125 36.9807 8.29688 37.5796 7.9375C38.1838 7.57292 38.8713 7.39062 39.6421 7.39062C40.7984 7.39062 41.7072 7.75521 42.3687 8.48438C43.0354 9.21354 43.3687 10.2474 43.3687 11.5859V12.5078H37.9859C38.0588 13.0599 38.2776 13.5026 38.6421 13.8359C39.0119 14.1693 39.4781 14.3359 40.0406 14.3359C40.9104 14.3359 41.5901 14.0208 42.0796 13.3906L43.189 14.6328C42.8505 15.112 42.3921 15.487 41.814 15.7578C41.2359 16.0234 40.5953 16.1562 39.8921 16.1562ZM39.6343 9.21875C39.1864 9.21875 38.8218 9.36979 38.5406 9.67188C38.2645 9.97396 38.0874 10.4062 38.0093 10.9688H41.1499V10.7891C41.1395 10.2891 41.0041 9.90365 40.7437 9.63281C40.4833 9.35677 40.1135 9.21875 39.6343 9.21875Z" fill="#9758A6"/>
</svg>
